<svg width="26" height="32" viewBox="0 0 26 32" fill="none" xmlns="http://www.w3.org/2000/svg">
<path d="M25.4014 14.6304L25.3909 5.33334C25.3909 4.88534 25.1118 4.48421 24.6953 4.33067L13.0673 0.064C12.8347 -0.0213333 12.5789 -0.0213333 12.3443 0.064L0.716312 4.33067C0.297648 4.48422 0.0207186 4.88534 0.0207186 5.33334L0.0101477 14.6304C-0.0596652 22.2444 -0.11252 27.7439 12.3716 31.9446C12.4795 31.9808 12.5936 32 12.7057 32C12.8178 32 12.9319 31.9808 13.0398 31.9467C25.5219 27.746 25.4731 22.2465 25.4013 14.6305L25.4014 14.6304ZM12.7056 6.4C15.0376 6.4 16.934 8.31355 16.934 10.6667C16.934 13.0198 15.0376 14.9333 12.7056 14.9333C10.3737 14.9333 8.47729 13.0198 8.47729 10.6667C8.47729 8.31355 10.3737 6.4 12.7056 6.4ZM17.9911 23.4667H7.4202C6.83671 23.4667 6.36311 22.9888 6.36311 22.4C6.36311 19.458 8.73516 17.0667 11.6486 17.0667H13.7627C16.6783 17.0667 19.0482 19.4581 19.0482 22.4C19.0482 22.9888 18.5746 23.4667 17.9911 23.4667Z" fill="#FFBB38"/>
</svg>
