<svg width="25" height="32" viewBox="0 0 25 32" fill="none" xmlns="http://www.w3.org/2000/svg">
<path d="M23.2143 12.8243H7.14286V8.19023C7.14286 5.79327 8.92857 3.71591 11.4286 3.23652C14.8214 2.75712 17.8571 4.99428 17.8571 8.03043C17.8571 8.98921 18.75 9.6284 19.6429 9.6284C20.5357 9.6284 21.4286 8.98921 21.4286 8.03043C21.4286 3.39631 16.9643 -0.438818 11.6071 0.0405735C6.96429 0.519965 3.57143 4.1953 3.57143 8.35002V12.8243H1.78571C0.892857 12.8243 0 13.4635 0 14.4223V30.402C0 31.201 0.892857 32 1.78571 32H23.2143C24.2857 32 25 31.201 25 30.402V14.4223C25 13.4635 24.2857 12.8243 23.2143 12.8243ZM14.2857 23.5308V25.6081C14.2857 26.5669 13.5714 27.2061 12.5 27.2061C11.4286 27.2061 10.7143 26.5669 10.7143 25.6081V23.5308C9.64286 22.8916 8.92857 21.9328 8.92857 20.8142C8.92857 18.7368 11.0714 17.2987 13.3929 17.7781C14.6429 18.0976 15.7143 19.0564 16.0714 20.175C16.4286 21.6132 15.5357 22.8916 14.2857 23.5308Z" fill="#FFBB38"/>
</svg>
